<?xml version="1.0" encoding="UTF-8" standalone="no"?>
<!-- Generator: Adobe Illustrator 19.0.0, SVG Export Plug-In . SVG Version: 6.00 Build 0)  -->

<svg
   xmlns:dc="http://purl.org/dc/elements/1.1/"
   xmlns:cc="http://creativecommons.org/ns#"
   xmlns:rdf="http://www.w3.org/1999/02/22-rdf-syntax-ns#"
   xmlns:svg="http://www.w3.org/2000/svg"
   xmlns="http://www.w3.org/2000/svg"
   xmlns:sodipodi="http://sodipodi.sourceforge.net/DTD/sodipodi-0.dtd"
   xmlns:inkscape="http://www.inkscape.org/namespaces/inkscape"
   version="1.1"
   id="Capa_1"
   x="0px"
   y="0px"
   viewBox="0 0 551.99976 130.50661"
   xml:space="preserve"
   sodipodi:docname="5star.svg"
   width="551.99976"
   height="130.50661"
   inkscape:version="0.92.4 (5da689c313, 2019-01-14)"><metadata
   id="metadata67"><rdf:RDF><cc:Work
       rdf:about=""><dc:format>image/svg+xml</dc:format><dc:type
         rdf:resource="http://purl.org/dc/dcmitype/StillImage" /><dc:title></dc:title></cc:Work></rdf:RDF></metadata><defs
   id="defs65" /><sodipodi:namedview
   pagecolor="#ffffff"
   bordercolor="#666666"
   borderopacity="1"
   objecttolerance="10"
   gridtolerance="10"
   guidetolerance="10"
   inkscape:pageopacity="0"
   inkscape:pageshadow="2"
   inkscape:window-width="1920"
   inkscape:window-height="986"
   id="namedview63"
   showgrid="false"
   fit-margin-top="20"
   fit-margin-bottom="20"
   fit-margin-left="20"
   fit-margin-right="20"
   inkscape:zoom="1.3037281"
   inkscape:cx="402.20076"
   inkscape:cy="186.5628"
   inkscape:window-x="-11"
   inkscape:window-y="-11"
   inkscape:window-maximized="1"
   inkscape:current-layer="Capa_1" />
<g
   id="g6"
   transform="translate(19.999683,-190.74625)"
   style="fill:#ffffff">
	<g
   id="g4"
   style="fill:#ffffff">
		<path
   d="m 94.526,244.611 c -0.769,-2.359 -2.809,-4.074 -5.267,-4.432 L 64.36,236.561 53.234,214.08 c -2.203,-4.445 -9.484,-4.445 -11.687,0 l -11.126,22.481 -24.84,3.618 c -2.451,0.358 -4.491,2.079 -5.26,4.439 -0.769,2.353 -0.13,4.941 1.649,6.674 l 18.016,17.56 -4.25,24.775 c -0.417,2.444 0.587,4.921 2.594,6.381 2.014,1.453 4.68,1.643 6.87,0.489 l 22.188,-11.7 22.253,11.7 c 0.952,0.502 1.995,0.75 3.031,0.75 1.349,0 2.698,-0.424 3.839,-1.238 2.008,-1.467 3.011,-3.937 2.594,-6.381 l -4.243,-24.775 18.016,-17.56 c 1.779,-1.728 2.417,-4.322 1.648,-6.682 z"
   id="path2"
   inkscape:connector-curvature="0"
   style="fill:#ffffff" />
	</g>
</g>
<g
   id="g12"
   transform="translate(19.999683,-190.74625)"
   style="fill:#ffffff">
	<g
   id="g10"
   style="fill:#ffffff">
		<path
   d="m 198.815,244.611 c -0.769,-2.359 -2.809,-4.074 -5.267,-4.432 l -24.899,-3.618 -11.126,-22.481 c -2.203,-4.445 -9.484,-4.445 -11.687,0 l -11.126,22.481 -24.84,3.618 c -2.451,0.358 -4.491,2.079 -5.26,4.439 -0.769,2.353 -0.13,4.941 1.649,6.674 l 18.016,17.56 -4.25,24.775 c -0.417,2.444 0.587,4.928 2.594,6.381 2.008,1.453 4.68,1.643 6.87,0.489 l 22.188,-11.7 22.253,11.7 c 0.952,0.502 1.995,0.75 3.031,0.75 1.349,0 2.698,-0.424 3.839,-1.238 2.008,-1.467 3.011,-3.937 2.594,-6.381 l -4.243,-24.775 18.016,-17.56 c 1.779,-1.728 2.417,-4.322 1.648,-6.682 z"
   id="path8"
   inkscape:connector-curvature="0"
   style="fill:#ffffff" />
	</g>
</g>
<g
   id="g18"
   transform="translate(19.999683,-190.74625)"
   style="fill:#ffffff">
	<g
   id="g16"
   style="fill:#ffffff">
		<path
   d="m 303.104,244.611 c -0.769,-2.359 -2.809,-4.074 -5.267,-4.432 l -24.899,-3.618 -11.126,-22.481 c -2.203,-4.445 -9.484,-4.445 -11.687,0 l -11.126,22.481 -24.84,3.618 c -2.451,0.358 -4.491,2.079 -5.26,4.439 -0.769,2.353 -0.13,4.941 1.649,6.674 l 18.016,17.56 -4.25,24.775 c -0.417,2.444 0.587,4.921 2.594,6.381 2.014,1.453 4.68,1.643 6.87,0.489 l 22.187,-11.7 22.253,11.7 c 0.952,0.502 1.995,0.75 3.031,0.75 1.349,0 2.698,-0.424 3.839,-1.238 2.008,-1.467 3.011,-3.937 2.594,-6.381 l -4.243,-24.775 18.016,-17.56 c 1.78,-1.728 2.418,-4.322 1.649,-6.682 z"
   id="path14"
   inkscape:connector-curvature="0"
   style="fill:#ffffff" />
	</g>
</g>
<g
   id="g24"
   style="fill:#ffffff;fill-opacity:1"
   transform="translate(19.999683,-190.74625)">
	<g
   id="g22"
   style="fill:#ffffff;fill-opacity:1">
		<path
   d="m 407.393,244.611 c -0.769,-2.359 -2.809,-4.074 -5.267,-4.432 l -24.899,-3.618 -11.126,-22.481 c -2.203,-4.445 -9.484,-4.445 -11.687,0 l -11.126,22.481 -24.84,3.618 c -2.451,0.358 -4.491,2.079 -5.26,4.439 -0.769,2.353 -0.13,4.941 1.649,6.674 l 18.016,17.56 -4.25,24.775 c -0.417,2.444 0.587,4.921 2.594,6.381 2.014,1.453 4.68,1.643 6.87,0.489 l 22.187,-11.7 22.253,11.7 c 0.952,0.502 1.995,0.75 3.031,0.75 1.349,0 2.698,-0.424 3.839,-1.238 2.008,-1.467 3.011,-3.937 2.594,-6.381 l -4.243,-24.775 18.016,-17.56 c 1.779,-1.728 2.418,-4.322 1.649,-6.682 z"
   id="path20"
   style="fill:#ffffff;fill-opacity:1"
   inkscape:connector-curvature="0" />
	</g>
</g>
<g
   id="g30"
   transform="translate(19.999683,-190.74625)"
   style="fill:#ffffff">
	<g
   id="g28"
   style="fill:#ffffff">
		<path
   d="m 511.682,244.611 c -0.776,-2.359 -2.809,-4.074 -5.267,-4.432 L 481.516,236.561 470.39,214.08 c -2.203,-4.445 -9.484,-4.445 -11.687,0 l -11.126,22.481 -24.84,3.618 c -2.451,0.358 -4.491,2.079 -5.26,4.439 -0.769,2.353 -0.13,4.941 1.649,6.674 l 18.016,17.56 -4.25,24.775 c -0.417,2.444 0.587,4.921 2.594,6.381 1.134,0.821 2.477,1.238 3.826,1.238 1.043,0 2.086,-0.248 3.05,-0.75 l 22.188,-11.7 22.259,11.7 c 2.19,1.167 4.849,0.971 6.864,-0.495 2.001,-1.46 3.005,-3.93 2.588,-6.375 l -4.243,-24.775 18.016,-17.56 c 1.778,-1.726 2.411,-4.32 1.648,-6.68 z"
   id="path26"
   inkscape:connector-curvature="0"
   style="fill:#ffffff" />
	</g>
</g>
<g
   id="g32"
   transform="translate(19.999683,-190.74625)">
</g>
<g
   id="g34"
   transform="translate(19.999683,-190.74625)">
</g>
<g
   id="g36"
   transform="translate(19.999683,-190.74625)">
</g>
<g
   id="g38"
   transform="translate(19.999683,-190.74625)">
</g>
<g
   id="g40"
   transform="translate(19.999683,-190.74625)">
</g>
<g
   id="g42"
   transform="translate(19.999683,-190.74625)">
</g>
<g
   id="g44"
   transform="translate(19.999683,-190.74625)">
</g>
<g
   id="g46"
   transform="translate(19.999683,-190.74625)">
</g>
<g
   id="g48"
   transform="translate(19.999683,-190.74625)">
</g>
<g
   id="g50"
   transform="translate(19.999683,-190.74625)">
</g>
<g
   id="g52"
   transform="translate(19.999683,-190.74625)">
</g>
<g
   id="g54"
   transform="translate(19.999683,-190.74625)">
</g>
<g
   id="g56"
   transform="translate(19.999683,-190.74625)">
</g>
<g
   id="g58"
   transform="translate(19.999683,-190.74625)">
</g>
<g
   id="g60"
   transform="translate(19.999683,-190.74625)">
</g>
</svg>