<?xml version="1.0" encoding="UTF-8" standalone="no"?>
<svg
   xmlns:dc="http://purl.org/dc/elements/1.1/"
   xmlns:cc="http://creativecommons.org/ns#"
   xmlns:rdf="http://www.w3.org/1999/02/22-rdf-syntax-ns#"
   xmlns:svg="http://www.w3.org/2000/svg"
   xmlns="http://www.w3.org/2000/svg"
   xmlns:sodipodi="http://sodipodi.sourceforge.net/DTD/sodipodi-0.dtd"
   xmlns:inkscape="http://www.inkscape.org/namespaces/inkscape"
   viewBox="0 0 661.99911 661.94928"
   version="1.1"
   id="svg8"
   sodipodi:docname="drawing.svg"
   inkscape:version="0.92.4 (5da689c313, 2019-01-14)"
   width="661.99915"
   height="661.94928">
  <metadata
     id="metadata14">
    <rdf:RDF>
      <cc:Work
         rdf:about="">
        <dc:format>image/svg+xml</dc:format>
        <dc:type
           rdf:resource="http://purl.org/dc/dcmitype/StillImage" />
        <dc:title></dc:title>
      </cc:Work>
    </rdf:RDF>
  </metadata>
  <defs
     id="defs12" />
  <sodipodi:namedview
     pagecolor="#ffffff"
     bordercolor="#666666"
     borderopacity="1"
     objecttolerance="10"
     gridtolerance="10"
     guidetolerance="10"
     inkscape:pageopacity="0"
     inkscape:pageshadow="2"
     inkscape:window-width="1920"
     inkscape:window-height="986"
     id="namedview10"
     showgrid="false"
     inkscape:zoom="0.4609375"
     inkscape:cx="251.81234"
     inkscape:cy="330.94923"
     inkscape:window-x="-11"
     inkscape:window-y="-11"
     inkscape:window-maximized="1"
     inkscape:current-layer="svg8"
     fit-margin-top="75"
     fit-margin-right="75"
     fit-margin-bottom="75"
     fit-margin-left="75" />
  <path
     d="m 205.13922,442.52351 c -3.89843,3.90234 -3.89843,10.23047 0,14.14062 3.91016,3.89844 10.24219,3.89844 14.15235,0 3.89844,-3.91015 3.89844,-10.23828 0,-14.14062 -3.91016,-3.91016 -10.24219,-3.91016 -14.15235,0 z m 0,0"
     id="path2"
     style="fill:#ffffff;fill-opacity:1"
     inkscape:connector-curvature="0" />
  <path
     d="m 405.34235,586.94929 c 5.52344,0 10,-4.47656 10,-10 0,-5.52344 -4.47656,-10 -10,-10 h -40 c -5.51953,0 -10,4.47656 -10,10 0,5.52344 4.48047,10 10,10 z m 0,0"
     id="path4"
     style="fill:#ffffff;fill-opacity:1"
     inkscape:connector-curvature="0" />
  <path
     d="M 484.55719,92.539133 C 480.61188,96.484446 152.59625,424.36335 141.5025,435.45319 v 0.004 c -0.004,0.004 -0.008,0.008 -0.0117,0.0117 -0.8164,0.82031 -1.52734,1.87109 -1.95703,2.78125 L 75.967348,572.65632 c -3.128906,6.61328 1.714844,14.29297 9.039062,14.29297 h 240.33985 c 5.52343,0 10,-4.47656 10,-10 0,-5.52344 -4.47657,-10 -10,-10 H 129.3775 l 94.19532,-44.6836 c 0.92969,-0.4375 1.95703,-1.13671 2.76562,-1.94531 0.008,-0.008 0.0156,-0.0117 0.0234,-0.0195 0,0 0.004,-0.004 0.004,-0.004 13.4414,-13.4336 325.77734,-325.63282 343.05078,-342.89844 23.4414,-23.44141 23.44531,-61.41406 0,-84.863283 -23.39453,-23.382812 -61.46094,-23.378906 -84.85938,0.0039 z m 7.0625,134.343747 c -17.58984,-17.58984 -38.875,-38.875 -56.57422,-56.57422 l 21.21875,-21.21093 56.57813,56.57421 z m -327.80078,301.59375 -30.4375,-30.44531 18.16016,-38.39453 50.64844,50.64062 z m 55.47266,-29.38281 -56.57422,-56.56641 258.18359,-258.07812 21.22266,21.22265 -208.69531,208.5625 c -3.90235,3.90235 -3.90625,10.23438 -0.004,14.14063 3.90234,3.90625 10.23438,3.91016 14.14453,0.004 l 208.69922,-208.5625 21.20703,21.20703 z m -94.99219,18.14062 20.33594,20.33985 -38.6211,18.32031 z m 430.97656,-353.98046 -28.28906,28.27734 -56.57812,-56.57422 28.28906,-28.27344 c 15.59765,-15.593745 40.98047,-15.593745 56.57422,-0.004 15.6289,15.625 15.63281,40.94922 0.004,56.57422 z m 0,0"
     id="path6"
     style="fill:#ffffff;fill-opacity:1"
     inkscape:connector-curvature="0" />
</svg>
