<?xml version="1.0" encoding="UTF-8" standalone="no"?>
<!-- Created with Inkscape (http://www.inkscape.org/) -->

<svg
   xmlns:dc="http://purl.org/dc/elements/1.1/"
   xmlns:cc="http://creativecommons.org/ns#"
   xmlns:rdf="http://www.w3.org/1999/02/22-rdf-syntax-ns#"
   xmlns:svg="http://www.w3.org/2000/svg"
   xmlns="http://www.w3.org/2000/svg"
   xmlns:sodipodi="http://sodipodi.sourceforge.net/DTD/sodipodi-0.dtd"
   xmlns:inkscape="http://www.inkscape.org/namespaces/inkscape"
   version="1.1"
   id="svg2"
   width="466.9776"
   height="456.19547"
   viewBox="0 0 466.9776 456.19547"
   sodipodi:docname="GitHub.svg"
   inkscape:version="0.92.4 (5da689c313, 2019-01-14)">
  <metadata
     id="metadata8">
    <rdf:RDF>
      <cc:Work
         rdf:about="">
        <dc:format>image/svg+xml</dc:format>
        <dc:type
           rdf:resource="http://purl.org/dc/dcmitype/StillImage" />
        <dc:title></dc:title>
      </cc:Work>
    </rdf:RDF>
  </metadata>
  <defs
     id="defs6" />
  <sodipodi:namedview
     pagecolor="#ffffff"
     bordercolor="#666666"
     borderopacity="1"
     objecttolerance="10"
     gridtolerance="10"
     guidetolerance="10"
     inkscape:pageopacity="0"
     inkscape:pageshadow="2"
     inkscape:window-width="1920"
     inkscape:window-height="986"
     id="namedview4"
     showgrid="false"
     fit-margin-top="0"
     fit-margin-left="0"
     fit-margin-right="0"
     fit-margin-bottom="0"
     inkscape:zoom="0.71297632"
     inkscape:cx="-96.830763"
     inkscape:cy="312.30895"
     inkscape:window-x="-11"
     inkscape:window-y="-11"
     inkscape:window-maximized="1"
     inkscape:current-layer="svg2" />
  <path
     style="fill:#ffffff;fill-opacity:1;stroke-width:0.91428572"
     d="m 160.36925,455.97899 c -4.4421,-0.86654 -23.45322,-8.77771 -34.15823,-14.21438 C 70.056868,413.24597 25.698768,359.13809 8.3444679,297.99131 2.328768,276.7952 0.02196801,258.97531 2.6801104e-4,233.53417 -0.01773199,212.65408 0.86456801,203.34652 4.578468,185.22063 21.871068,100.82474 87.368868,31.069223 170.78805,8.2065628 c 47.67243,-13.06556 102.20483,-10.4181 147.11526,7.1421902 54.69312,21.38541 98.69753,61.498035 125.02085,113.963907 12.02811,23.97362 19.30658,48.00881 22.97799,75.87865 1.4415,10.9425 1.43172,45.20851 -0.0162,56.68572 -4.5737,36.25471 -16.55893,69.29719 -35.76207,98.59365 -27.72436,42.2965 -65.32873,73.1426 -111.12608,91.15446 -14.13037,5.55741 -19.18903,5.88405 -23.55454,1.52098 l -2.95975,-2.9581 -0.55396,-41.35549 c -0.59293,-44.26381 -0.8217,-46.58112 -5.67441,-57.47812 -1.20161,-2.69827 -3.86683,-7.02227 -5.92271,-9.60888 l -3.73798,-4.70293 7.48739,-1.04797 c 23.93543,-3.35011 42.58129,-9.9103 58.66952,-20.64177 19.56504,-13.05064 31.62053,-33.30423 37.54441,-63.07583 1.94937,-9.79695 2.79098,-37.29908 1.41114,-46.11347 -2.35249,-15.02773 -9.78733,-31.69077 -19.10626,-42.82122 l -3.67134,-4.38499 2.24752,-7.74016 c 3.99029,-13.74207 2.92651,-33.0127 -2.68637,-48.6643 -1.78115,-4.966771 -2.35508,-5.686181 -5.1011,-6.394091 -8.49606,-2.19023 -32.60763,6.646551 -53.51215,19.611931 -5.20749,3.2298 -7.99488,4.42591 -9.64469,4.13871 -1.27624,-0.22217 -6.49176,-1.28309 -11.59006,-2.3576 -29.16272,-6.14628 -61.09803,-6.14628 -90.26075,0 -5.0983,1.07451 -10.33835,2.13903 -11.64457,2.3656 -1.71201,0.29696 -4.18563,-0.74867 -8.86166,-3.74593 -18.64221,-11.94935 -45.03717,-21.610751 -54.73926,-20.036331 -2.94638,0.47814 -3.15748,0.79228 -5.33957,7.946291 -3.53863,11.60133 -4.43498,17.53223 -4.3649,28.88128 0.052,8.42669 0.51979,12.04549 2.35585,18.22629 l 2.29093,7.712 -3.5193,4.1737 c -9.234292,10.95142 -16.897362,28.11147 -19.241962,43.08882 -1.3818,8.82699 -0.5369,36.33492 1.4161,46.10397 4.68397,23.42959 13.769442,42.06792 26.435122,54.23013 9.51997,9.14153 24.87245,18.01386 39.88645,23.05071 6.52543,2.18912 23.97896,5.89013 32.2006,6.8281 l 5.22916,0.59658 -3.56054,4.5044 c -4.6254,5.85157 -7.9677,13.01153 -9.74251,20.87064 -1.38936,6.15227 -1.52131,6.34698 -5.23315,7.72168 -8.18547,3.03156 -12.46533,3.70323 -23.92213,3.75428 -11.73703,0.0523 -11.96314,0.0141 -18.0733,-3.05191 -7.91273,-3.97056 -14.75553,-10.5733 -21.01957,-20.28216 -9.073345,-14.0631 -22.857332,-23.97088 -35.056332,-25.19807 -7.0183,-0.70605 -12.2508,0.80508 -12.2508,3.53801 0,2.08191 7.3459,9.51816 13.8183,13.98818 2.2056,1.5233 6.1914,5.63759 8.8573,9.14286 4.3477,5.71674 6.53864,9.75014 14.562527,26.80881 4.398805,9.35181 15.453325,17.96094 27.676155,21.55387 2.76571,0.81298 10.78857,1.93964 17.82857,2.50368 10.45774,0.83786 14.43124,0.78486 21.71429,-0.28964 l 8.91429,-1.31515 0.22529,16.04153 c 0.45293,32.24946 0.25195,33.97756 -4.29837,36.95903 -2.4062,1.57661 -7.30077,2.39082 -10.55549,1.7559 z"
     id="path817"
     inkscape:connector-curvature="0" />
</svg>
