<?xml version="1.0" encoding="UTF-8" standalone="no"?>
<!-- Created with Inkscape (http://www.inkscape.org/) -->

<svg
   xmlns:dc="http://purl.org/dc/elements/1.1/"
   xmlns:cc="http://creativecommons.org/ns#"
   xmlns:rdf="http://www.w3.org/1999/02/22-rdf-syntax-ns#"
   xmlns:svg="http://www.w3.org/2000/svg"
   xmlns="http://www.w3.org/2000/svg"
   xmlns:sodipodi="http://sodipodi.sourceforge.net/DTD/sodipodi-0.dtd"
   xmlns:inkscape="http://www.inkscape.org/namespaces/inkscape"
   width="13.864988mm"
   height="13.864988mm"
   viewBox="0 0 13.864988 13.864988"
   version="1.1"
   id="svg962"
   inkscape:version="0.92.4 (5da689c313, 2019-01-14)"
   sodipodi:docname="LinkedInlogo.svg">
  <defs
     id="defs956" />
  <sodipodi:namedview
     id="base"
     pagecolor="#ffffff"
     bordercolor="#666666"
     borderopacity="1.0"
     inkscape:pageopacity="0.0"
     inkscape:pageshadow="2"
     inkscape:zoom="3.959798"
     inkscape:cx="79.70506"
     inkscape:cy="12.58882"
     inkscape:document-units="mm"
     inkscape:current-layer="g1008"
     showgrid="false"
     fit-margin-top="0"
     fit-margin-left="0"
     fit-margin-right="0"
     fit-margin-bottom="0"
     inkscape:window-width="1920"
     inkscape:window-height="986"
     inkscape:window-x="-11"
     inkscape:window-y="-11"
     inkscape:window-maximized="1" />
  <metadata
     id="metadata959">
    <rdf:RDF>
      <cc:Work
         rdf:about="">
        <dc:format>image/svg+xml</dc:format>
        <dc:type
           rdf:resource="http://purl.org/dc/dcmitype/StillImage" />
        <dc:title></dc:title>
      </cc:Work>
    </rdf:RDF>
  </metadata>
  <g
     inkscape:label="Layer 1"
     inkscape:groupmode="layer"
     id="layer1"
     transform="translate(-113.26393,-193.3056)">
    <g
       id="g1008"
       transform="matrix(0.03629578,0,0,0.03629578,113.26393,193.3056)"
       style="fill:#fbfbfc;fill-opacity:1;stroke:none;stroke-opacity:1"
       inkscape:export-filename="D:\wrss\WRSS WZ\Strona WRSS\LinkedInlogo.png"
       inkscape:export-xdpi="183.19525"
       inkscape:export-ydpi="183.19525">
      <path
         id="path953"
         d="M 347.445,0 H 34.555 C 15.471,0 0,15.471 0,34.555 V 347.444 C 0,366.529 15.471,382 34.555,382 H 347.444 C 366.529,382 382,366.529 382,347.444 V 34.555 C 382,15.471 366.529,0 347.445,0 Z M 118.207,329.844 c 0,5.554 -4.502,10.056 -10.056,10.056 H 65.345 c -5.554,0 -10.056,-4.502 -10.056,-10.056 V 150.403 c 0,-5.554 4.502,-10.056 10.056,-10.056 h 42.806 c 5.554,0 10.056,4.502 10.056,10.056 z M 86.748,123.432 c -22.459,0 -40.666,-18.207 -40.666,-40.666 0,-22.459 18.207,-40.666 40.666,-40.666 22.459,0 40.666,18.207 40.666,40.666 0,22.459 -18.206,40.666 -40.666,40.666 z M 341.91,330.654 c 0,5.106 -4.14,9.246 -9.246,9.246 H 286.73 c -5.106,0 -9.246,-4.14 -9.246,-9.246 v -84.168 c 0,-12.556 3.683,-55.021 -32.813,-55.021 -28.309,0 -34.051,29.066 -35.204,42.11 v 97.079 c 0,5.106 -4.139,9.246 -9.246,9.246 h -44.426 c -5.106,0 -9.246,-4.14 -9.246,-9.246 V 149.593 c 0,-5.106 4.14,-9.246 9.246,-9.246 h 44.426 c 5.106,0 9.246,4.14 9.246,9.246 v 15.655 c 10.497,-15.753 26.097,-27.912 59.312,-27.912 73.552,0 73.131,68.716 73.131,106.472 z"
         style="fill:#ffffff;fill-opacity:1;stroke:none;stroke-opacity:1"
         inkscape:connector-curvature="0" />
      <g
         id="g955"
         style="fill:#fbfbfc;fill-opacity:1;stroke:none;stroke-opacity:1" />
      <g
         id="g957"
         style="fill:#fbfbfc;fill-opacity:1;stroke:none;stroke-opacity:1" />
      <g
         id="g959"
         style="fill:#fbfbfc;fill-opacity:1;stroke:none;stroke-opacity:1" />
      <g
         id="g961"
         style="fill:#fbfbfc;fill-opacity:1;stroke:none;stroke-opacity:1" />
      <g
         id="g963"
         style="fill:#fbfbfc;fill-opacity:1;stroke:none;stroke-opacity:1" />
      <g
         id="g965"
         style="fill:#fbfbfc;fill-opacity:1;stroke:none;stroke-opacity:1" />
      <g
         id="g967"
         style="fill:#fbfbfc;fill-opacity:1;stroke:none;stroke-opacity:1" />
      <g
         id="g969"
         style="fill:#fbfbfc;fill-opacity:1;stroke:none;stroke-opacity:1" />
      <g
         id="g971"
         style="fill:#fbfbfc;fill-opacity:1;stroke:none;stroke-opacity:1" />
      <g
         id="g973"
         style="fill:#fbfbfc;fill-opacity:1;stroke:none;stroke-opacity:1" />
      <g
         id="g975"
         style="fill:#fbfbfc;fill-opacity:1;stroke:none;stroke-opacity:1" />
      <g
         id="g977"
         style="fill:#fbfbfc;fill-opacity:1;stroke:none;stroke-opacity:1" />
      <g
         id="g979"
         style="fill:#fbfbfc;fill-opacity:1;stroke:none;stroke-opacity:1" />
      <g
         id="g981"
         style="fill:#fbfbfc;fill-opacity:1;stroke:none;stroke-opacity:1" />
      <g
         id="g983"
         style="fill:#fbfbfc;fill-opacity:1;stroke:none;stroke-opacity:1" />
    </g>
  </g>
</svg>
