<?xml version="1.0" encoding="UTF-8" standalone="no"?>
<!-- Generator: Adobe Illustrator 19.0.0, SVG Export Plug-In . SVG Version: 6.00 Build 0)  -->

<svg
   xmlns:dc="http://purl.org/dc/elements/1.1/"
   xmlns:cc="http://creativecommons.org/ns#"
   xmlns:rdf="http://www.w3.org/1999/02/22-rdf-syntax-ns#"
   xmlns:svg="http://www.w3.org/2000/svg"
   xmlns="http://www.w3.org/2000/svg"
   xmlns:sodipodi="http://sodipodi.sourceforge.net/DTD/sodipodi-0.dtd"
   xmlns:inkscape="http://www.inkscape.org/namespaces/inkscape"
   version="1.1"
   id="Capa_1"
   x="0px"
   y="0px"
   viewBox="0 0 552.00239 130.50075"
   xml:space="preserve"
   sodipodi:docname="0star.svg"
   width="552.00238"
   height="130.50075"
   inkscape:version="0.92.4 (5da689c313, 2019-01-14)"><metadata
   id="metadata67"><rdf:RDF><cc:Work
       rdf:about=""><dc:format>image/svg+xml</dc:format><dc:type
         rdf:resource="http://purl.org/dc/dcmitype/StillImage" /><dc:title></dc:title></cc:Work></rdf:RDF></metadata><defs
   id="defs65" /><sodipodi:namedview
   pagecolor="#ffffff"
   bordercolor="#666666"
   borderopacity="1"
   objecttolerance="10"
   gridtolerance="10"
   guidetolerance="10"
   inkscape:pageopacity="0"
   inkscape:pageshadow="2"
   inkscape:window-width="1920"
   inkscape:window-height="986"
   id="namedview63"
   showgrid="false"
   fit-margin-top="20"
   fit-margin-left="20"
   fit-margin-right="20"
   fit-margin-bottom="20"
   inkscape:zoom="1.8437392"
   inkscape:cx="424.73925"
   inkscape:cy="-0.94128806"
   inkscape:window-x="-11"
   inkscape:window-y="-11"
   inkscape:window-maximized="1"
   inkscape:current-layer="Capa_1" />



<g
   id="g24"
   transform="translate(19.999683,-190.75125)"
   style="fill:#ffffff">
	<g
   id="g22"
   style="fill:#ffffff">
		<path
   d="m 407.393,244.616 c -0.769,-2.36 -2.809,-4.08 -5.267,-4.439 l -24.899,-3.611 -11.126,-22.481 c -2.203,-4.445 -9.484,-4.445 -11.687,0 l -11.126,22.481 -24.84,3.611 c -2.451,0.365 -4.491,2.079 -5.26,4.439 -0.769,2.36 -0.13,4.947 1.649,6.681 l 18.016,17.553 -4.25,24.782 c -0.417,2.451 0.587,4.921 2.594,6.381 2.014,1.453 4.68,1.643 6.87,0.489 l 22.187,-11.7 22.253,11.7 c 0.952,0.502 1.995,0.75 3.031,0.75 1.349,0 2.698,-0.417 3.846,-1.245 2.008,-1.46 3.011,-3.93 2.594,-6.375 l -4.243,-24.782 18.009,-17.553 c 1.779,-1.734 2.418,-4.322 1.649,-6.681 z m -31.228,17.292 c -1.538,1.499 -2.236,3.65 -1.877,5.768 l 2.594,15.148 -13.603,-7.157 c -0.945,-0.502 -1.988,-0.75 -3.031,-0.75 -1.043,0 -2.086,0.254 -3.031,0.756 l -13.531,7.131 2.594,-15.128 c 0.358,-2.112 -0.339,-4.269 -1.877,-5.768 l -11.009,-10.729 15.155,-2.203 c 2.118,-0.306 3.95,-1.636 4.902,-3.559 l 6.798,-13.747 6.798,13.747 c 0.952,1.923 2.783,3.253 4.908,3.559 l 15.213,2.21 z"
   id="path20"
   inkscape:connector-curvature="0"
   style="fill:#ffffff" />
	</g>
</g>
<g
   id="g30"
   transform="translate(19.999683,-190.75125)"
   style="fill:#ffffff">
	<g
   id="g28"
   style="fill:#ffffff">
		<path
   d="m 511.682,244.616 c -0.769,-2.36 -2.809,-4.08 -5.267,-4.439 l -24.899,-3.611 -11.126,-22.481 c -2.203,-4.445 -9.484,-4.445 -11.687,0 l -11.126,22.481 -24.84,3.611 c -2.451,0.365 -4.491,2.079 -5.26,4.439 -0.769,2.36 -0.13,4.947 1.649,6.681 l 18.016,17.553 -4.25,24.782 c -0.417,2.451 0.587,4.921 2.594,6.381 2.014,1.453 4.68,1.643 6.87,0.489 l 22.188,-11.7 22.253,11.7 c 0.952,0.502 1.995,0.75 3.031,0.75 1.349,0 2.698,-0.417 3.846,-1.245 2.008,-1.46 3.011,-3.93 2.594,-6.375 l -4.243,-24.782 18.009,-17.553 c 1.778,-1.734 2.417,-4.322 1.648,-6.681 z m -31.228,17.292 c -1.538,1.499 -2.236,3.65 -1.877,5.768 l 2.594,15.148 -13.603,-7.157 c -0.945,-0.502 -1.988,-0.75 -3.031,-0.75 -1.043,0 -2.086,0.254 -3.031,0.756 l -13.531,7.131 2.594,-15.128 c 0.359,-2.112 -0.339,-4.269 -1.877,-5.768 l -11.009,-10.729 15.154,-2.203 c 2.118,-0.306 3.95,-1.636 4.902,-3.559 l 6.798,-13.747 6.798,13.747 c 0.952,1.923 2.783,3.253 4.908,3.559 l 15.213,2.21 z"
   id="path26"
   inkscape:connector-curvature="0"
   style="fill:#ffffff" />
	</g>
</g>
<g
   id="g32"
   transform="translate(19.999683,-190.75125)">
</g>
<g
   id="g34"
   transform="translate(19.999683,-190.75125)">
</g>
<g
   id="g36"
   transform="translate(19.999683,-190.75125)">
</g>
<g
   id="g38"
   transform="translate(19.999683,-190.75125)">
</g>
<g
   id="g40"
   transform="translate(19.999683,-190.75125)">
</g>
<g
   id="g42"
   transform="translate(19.999683,-190.75125)">
</g>
<g
   id="g44"
   transform="translate(19.999683,-190.75125)">
</g>
<g
   id="g46"
   transform="translate(19.999683,-190.75125)">
</g>
<g
   id="g48"
   transform="translate(19.999683,-190.75125)">
</g>
<g
   id="g50"
   transform="translate(19.999683,-190.75125)">
</g>
<g
   id="g52"
   transform="translate(19.999683,-190.75125)">
</g>
<g
   id="g54"
   transform="translate(19.999683,-190.75125)">
</g>
<g
   id="g56"
   transform="translate(19.999683,-190.75125)">
</g>
<g
   id="g58"
   transform="translate(19.999683,-190.75125)">
</g>
<g
   id="g60"
   transform="translate(19.999683,-190.75125)">
</g>
<g
   id="g893"
   transform="translate(19.999683,-190.75125)"
   style="fill:#ffffff">
	<g
   id="g891"
   style="fill:#ffffff">
		<path
   id="path889"
   d="m 407.393,244.616 c -0.769,-2.36 -2.809,-4.08 -5.267,-4.439 l -24.899,-3.611 -11.126,-22.481 c -2.203,-4.445 -9.484,-4.445 -11.687,0 l -11.126,22.481 -24.84,3.611 c -2.451,0.365 -4.491,2.079 -5.26,4.439 -0.769,2.36 -0.13,4.947 1.649,6.681 l 18.016,17.553 -4.25,24.782 c -0.417,2.451 0.587,4.921 2.594,6.381 2.014,1.453 4.68,1.643 6.87,0.489 l 22.187,-11.7 22.253,11.7 c 0.952,0.502 1.995,0.75 3.031,0.75 1.349,0 2.698,-0.417 3.846,-1.245 2.008,-1.46 3.011,-3.93 2.594,-6.375 l -4.243,-24.782 18.009,-17.553 c 1.779,-1.734 2.418,-4.322 1.649,-6.681 z m -31.228,17.292 c -1.538,1.499 -2.236,3.65 -1.877,5.768 l 2.594,15.148 -13.603,-7.157 c -0.945,-0.502 -1.988,-0.75 -3.031,-0.75 -1.043,0 -2.086,0.254 -3.031,0.756 l -13.531,7.131 2.594,-15.128 c 0.358,-2.112 -0.339,-4.269 -1.877,-5.768 l -11.009,-10.729 15.155,-2.203 c 2.118,-0.306 3.95,-1.636 4.902,-3.559 l 6.798,-13.747 6.798,13.747 c 0.952,1.923 2.783,3.253 4.908,3.559 l 15.213,2.21 z"
   inkscape:connector-curvature="0"
   style="fill:#ffffff" />
	</g>
</g><g
   id="g899"
   transform="translate(-84.289317,-190.75125)"
   style="fill:#ffffff">
	<g
   id="g897"
   style="fill:#ffffff">
		<path
   d="m 407.393,244.616 c -0.769,-2.36 -2.809,-4.08 -5.267,-4.439 l -24.899,-3.611 -11.126,-22.481 c -2.203,-4.445 -9.484,-4.445 -11.687,0 l -11.126,22.481 -24.84,3.611 c -2.451,0.365 -4.491,2.079 -5.26,4.439 -0.769,2.36 -0.13,4.947 1.649,6.681 l 18.016,17.553 -4.25,24.782 c -0.417,2.451 0.587,4.921 2.594,6.381 2.014,1.453 4.68,1.643 6.87,0.489 l 22.187,-11.7 22.253,11.7 c 0.952,0.502 1.995,0.75 3.031,0.75 1.349,0 2.698,-0.417 3.846,-1.245 2.008,-1.46 3.011,-3.93 2.594,-6.375 l -4.243,-24.782 18.009,-17.553 c 1.779,-1.734 2.418,-4.322 1.649,-6.681 z m -31.228,17.292 c -1.538,1.499 -2.236,3.65 -1.877,5.768 l 2.594,15.148 -13.603,-7.157 c -0.945,-0.502 -1.988,-0.75 -3.031,-0.75 -1.043,0 -2.086,0.254 -3.031,0.756 l -13.531,7.131 2.594,-15.128 c 0.358,-2.112 -0.339,-4.269 -1.877,-5.768 l -11.009,-10.729 15.155,-2.203 c 2.118,-0.306 3.95,-1.636 4.902,-3.559 l 6.798,-13.747 6.798,13.747 c 0.952,1.923 2.783,3.253 4.908,3.559 l 15.213,2.21 z"
   id="path895"
   inkscape:connector-curvature="0"
   style="fill:#ffffff" />
	</g>
</g><g
   transform="translate(-188.57832,-190.75125)"
   id="g905"
   style="fill:#ffffff">
	<g
   id="g903"
   style="fill:#ffffff">
		<path
   inkscape:connector-curvature="0"
   id="path901"
   d="m 407.393,244.616 c -0.769,-2.36 -2.809,-4.08 -5.267,-4.439 l -24.899,-3.611 -11.126,-22.481 c -2.203,-4.445 -9.484,-4.445 -11.687,0 l -11.126,22.481 -24.84,3.611 c -2.451,0.365 -4.491,2.079 -5.26,4.439 -0.769,2.36 -0.13,4.947 1.649,6.681 l 18.016,17.553 -4.25,24.782 c -0.417,2.451 0.587,4.921 2.594,6.381 2.014,1.453 4.68,1.643 6.87,0.489 l 22.187,-11.7 22.253,11.7 c 0.952,0.502 1.995,0.75 3.031,0.75 1.349,0 2.698,-0.417 3.846,-1.245 2.008,-1.46 3.011,-3.93 2.594,-6.375 l -4.243,-24.782 18.009,-17.553 c 1.779,-1.734 2.418,-4.322 1.649,-6.681 z m -31.228,17.292 c -1.538,1.499 -2.236,3.65 -1.877,5.768 l 2.594,15.148 -13.603,-7.157 c -0.945,-0.502 -1.988,-0.75 -3.031,-0.75 -1.043,0 -2.086,0.254 -3.031,0.756 l -13.531,7.131 2.594,-15.128 c 0.358,-2.112 -0.339,-4.269 -1.877,-5.768 l -11.009,-10.729 15.155,-2.203 c 2.118,-0.306 3.95,-1.636 4.902,-3.559 l 6.798,-13.747 6.798,13.747 c 0.952,1.923 2.783,3.253 4.908,3.559 l 15.213,2.21 z"
   style="fill:#ffffff" />
	</g>
</g><g
   id="g911"
   transform="translate(-292.86732,-190.75125)"
   style="fill:#ffffff">
	<g
   id="g909"
   style="fill:#ffffff">
		<path
   d="m 407.393,244.616 c -0.769,-2.36 -2.809,-4.08 -5.267,-4.439 l -24.899,-3.611 -11.126,-22.481 c -2.203,-4.445 -9.484,-4.445 -11.687,0 l -11.126,22.481 -24.84,3.611 c -2.451,0.365 -4.491,2.079 -5.26,4.439 -0.769,2.36 -0.13,4.947 1.649,6.681 l 18.016,17.553 -4.25,24.782 c -0.417,2.451 0.587,4.921 2.594,6.381 2.014,1.453 4.68,1.643 6.87,0.489 l 22.187,-11.7 22.253,11.7 c 0.952,0.502 1.995,0.75 3.031,0.75 1.349,0 2.698,-0.417 3.846,-1.245 2.008,-1.46 3.011,-3.93 2.594,-6.375 l -4.243,-24.782 18.009,-17.553 c 1.779,-1.734 2.418,-4.322 1.649,-6.681 z m -31.228,17.292 c -1.538,1.499 -2.236,3.65 -1.877,5.768 l 2.594,15.148 -13.603,-7.157 c -0.945,-0.502 -1.988,-0.75 -3.031,-0.75 -1.043,0 -2.086,0.254 -3.031,0.756 l -13.531,7.131 2.594,-15.128 c 0.358,-2.112 -0.339,-4.269 -1.877,-5.768 l -11.009,-10.729 15.155,-2.203 c 2.118,-0.306 3.95,-1.636 4.902,-3.559 l 6.798,-13.747 6.798,13.747 c 0.952,1.923 2.783,3.253 4.908,3.559 l 15.213,2.21 z"
   id="path907"
   inkscape:connector-curvature="0"
   style="fill:#ffffff" />
	</g>
</g></svg>