<?xml version="1.0" encoding="UTF-8" standalone="no"?>
<!-- Created with Inkscape (http://www.inkscape.org/) -->

<svg
   xmlns:dc="http://purl.org/dc/elements/1.1/"
   xmlns:cc="http://creativecommons.org/ns#"
   xmlns:rdf="http://www.w3.org/1999/02/22-rdf-syntax-ns#"
   xmlns:svg="http://www.w3.org/2000/svg"
   xmlns="http://www.w3.org/2000/svg"
   xmlns:sodipodi="http://sodipodi.sourceforge.net/DTD/sodipodi-0.dtd"
   xmlns:inkscape="http://www.inkscape.org/namespaces/inkscape"
   width="147.46429mm"
   height="147.46429mm"
   viewBox="0 0 147.46429 147.46429"
   version="1.1"
   id="svg3085"
   inkscape:version="0.92.4 (5da689c313, 2019-01-14)"
   sodipodi:docname="C1.svg">
  <defs
     id="defs3079" />
  <sodipodi:namedview
     id="base"
     pagecolor="#ffffff"
     bordercolor="#666666"
     borderopacity="1.0"
     inkscape:pageopacity="0.0"
     inkscape:pageshadow="2"
     inkscape:zoom="0.7"
     inkscape:cx="-9.9129229"
     inkscape:cy="401.83286"
     inkscape:document-units="mm"
     inkscape:current-layer="layer1"
     showgrid="false"
     fit-margin-top="10"
     fit-margin-right="10"
     fit-margin-bottom="10"
     fit-margin-left="10"
     inkscape:window-width="1920"
     inkscape:window-height="986"
     inkscape:window-x="-11"
     inkscape:window-y="-11"
     inkscape:window-maximized="1" />
  <metadata
     id="metadata3082">
    <rdf:RDF>
      <cc:Work
         rdf:about="">
        <dc:format>image/svg+xml</dc:format>
        <dc:type
           rdf:resource="http://purl.org/dc/dcmitype/StillImage" />
        <dc:title></dc:title>
      </cc:Work>
    </rdf:RDF>
  </metadata>
  <g
     inkscape:label="Layer 1"
     inkscape:groupmode="layer"
     id="layer1"
     transform="translate(10.126359,-77.543465)">
    <g
       aria-label="C1"
       transform="matrix(0.55755825,0,0,0.55755825,-127.18259,-206.23031)"
       style="font-style:normal;font-variant:normal;font-weight:600;font-stretch:normal;font-size:13.33333302px;line-height:1.25;font-family:Oswald;-inkscape-font-specification:'Oswald Semi-Bold';letter-spacing:0.02372697px;word-spacing:0px;fill:#ff00ff;fill-opacity:1;stroke:none"
       id="flowRoot3630">
      <path
         d="m 339.98242,684.79297 q 0,1.5 -0.0937,2.625 -0.0937,1.125 -0.375,1.96875 -0.1875,0.84375 -0.5625,1.5 -0.375,0.65625 -1.3125,1.59375 -0.9375,0.9375 -3.9375,2.90625 -3,1.875 -7.5,3.75 -4.40625,1.78125 -10.21875,3 -5.71875,1.3125 -12.5625,1.3125 -11.8125,0 -21.375,-3.9375 -9.46875,-3.9375 -16.21875,-11.625 -6.65625,-7.6875 -10.3125,-18.9375 -3.5625,-11.34375 -3.5625,-26.0625 0,-15.09375 3.84375,-26.90625 3.9375,-11.8125 10.96875,-19.96875 7.03125,-8.25 16.78125,-12.5625 9.84375,-4.3125 21.75,-4.3125 5.25,0 10.21875,1.03125 4.96875,0.9375 9.1875,2.4375 4.21875,1.5 7.5,3.46875 3.28125,1.96875 4.5,3.28125 1.3125,1.21875 1.6875,1.875 0.375,0.65625 0.5625,1.59375 0.28125,0.84375 0.375,2.0625 0.1875,1.21875 0.1875,2.90625 0,1.875 -0.1875,3.1875 -0.1875,1.3125 -0.5625,2.25 -0.375,0.84375 -0.9375,1.3125 -0.46875,0.375 -1.21875,0.375 -1.3125,0 -3.65625,-1.78125 -2.34375,-1.875 -6.09375,-4.03125 -3.65625,-2.25 -9,-4.03125 -5.25,-1.875 -12.65625,-1.875 -8.0625,0 -14.71875,3.28125 -6.5625,3.1875 -11.25,9.46875 -4.6875,6.28125 -7.3125,15.375 -2.53125,9 -2.53125,20.625 0,11.53125 2.4375,20.4375 2.53125,8.8125 7.125,14.8125 4.6875,5.90625 11.4375,9 6.75,3 15.28125,3 7.21875,0 12.5625,-1.78125 5.4375,-1.78125 9.1875,-3.9375 3.84375,-2.25 6.28125,-4.03125 2.4375,-1.78125 3.84375,-1.78125 0.65625,0 1.125,0.28125 0.46875,0.28125 0.75,1.125 0.28125,0.75 0.375,2.15625 0.1875,1.40625 0.1875,3.5625 z"
         style="font-style:normal;font-variant:normal;font-weight:normal;font-stretch:normal;font-size:192px;font-family:Calibri;-inkscape-font-specification:Calibri;letter-spacing:0.08541708px;fill:#ffffff;fill-opacity:1"
         id="path3650" />
      <path
         d="m 432.22409,695.57422 q 0,1.78125 -0.28125,3 -0.28125,1.21875 -0.75,1.96875 -0.46875,0.75 -1.125,1.125 -0.5625,0.28125 -1.21875,0.28125 h -63.375 q -0.65625,0 -1.21875,-0.28125 -0.5625,-0.375 -1.125,-1.125 -0.46875,-0.75 -0.75,-1.96875 -0.28125,-1.21875 -0.28125,-3 0,-1.6875 0.28125,-2.90625 0.28125,-1.21875 0.65625,-1.96875 0.46875,-0.84375 1.03125,-1.21875 0.65625,-0.46875 1.40625,-0.46875 h 25.3125 v -92.25 l -23.4375,13.96875 q -1.78125,0.9375 -2.90625,1.125 -1.03125,0.1875 -1.6875,-0.375 -0.65625,-0.65625 -0.9375,-2.0625 -0.1875,-1.40625 -0.1875,-3.5625 0,-1.59375 0.0937,-2.71875 0.1875,-1.125 0.46875,-1.875 0.28125,-0.75 0.75,-1.3125 0.5625,-0.5625 1.40625,-1.125 l 27.9375,-17.90625 q 0.375,-0.28125 0.9375,-0.46875 0.5625,-0.1875 1.40625,-0.375 0.84375,-0.1875 1.96875,-0.1875 1.125,-0.0937 2.8125,-0.0937 2.25,0 3.75,0.1875 1.5,0.1875 2.34375,0.5625 0.84375,0.28125 1.125,0.84375 0.28125,0.46875 0.28125,1.03125 v 106.59375 h 21.9375 q 0.75,0 1.40625,0.46875 0.65625,0.375 1.03125,1.21875 0.46875,0.75 0.65625,1.96875 0.28125,1.21875 0.28125,2.90625 z"
         style="font-style:normal;font-variant:normal;font-weight:normal;font-stretch:normal;font-size:192px;font-family:Calibri;-inkscape-font-specification:Calibri;letter-spacing:0.08541708px;fill:#ffffff;fill-opacity:1"
         id="path3652" />
    </g>
  </g>
</svg>
