<?xml version="1.0" encoding="UTF-8" standalone="no"?>
<!-- Generator: Adobe Illustrator 18.0.0, SVG Export Plug-In . SVG Version: 6.00 Build 0)  -->

<svg
   xmlns:dc="http://purl.org/dc/elements/1.1/"
   xmlns:cc="http://creativecommons.org/ns#"
   xmlns:rdf="http://www.w3.org/1999/02/22-rdf-syntax-ns#"
   xmlns:svg="http://www.w3.org/2000/svg"
   xmlns="http://www.w3.org/2000/svg"
   xmlns:sodipodi="http://sodipodi.sourceforge.net/DTD/sodipodi-0.dtd"
   xmlns:inkscape="http://www.inkscape.org/namespaces/inkscape"
   version="1.1"
   id="Capa_1"
   x="0px"
   y="0px"
   viewBox="0 0 418.99999 415.738"
   xml:space="preserve"
   sodipodi:docname="piano.svg"
   inkscape:version="0.92.4 (5da689c313, 2019-01-14)"
   width="399.04761"
   height="395.94095"><metadata
   id="metadata39"><rdf:RDF><cc:Work
       rdf:about=""><dc:format>image/svg+xml</dc:format><dc:type
         rdf:resource="http://purl.org/dc/dcmitype/StillImage" /><dc:title></dc:title></cc:Work></rdf:RDF></metadata><defs
   id="defs37" /><sodipodi:namedview
   pagecolor="#ffffff"
   bordercolor="#666666"
   borderopacity="1"
   objecttolerance="10"
   gridtolerance="10"
   guidetolerance="10"
   inkscape:pageopacity="0"
   inkscape:pageshadow="2"
   inkscape:window-width="1920"
   inkscape:window-height="986"
   id="namedview35"
   showgrid="false"
   inkscape:zoom="2.1258242"
   inkscape:cx="160.71091"
   inkscape:cy="206.94284"
   inkscape:window-x="-11"
   inkscape:window-y="-11"
   inkscape:window-maximized="1"
   inkscape:current-layer="Capa_1"
   fit-margin-top="50"
   fit-margin-right="50"
   fit-margin-left="50"
   fit-margin-bottom="50"
   scale-x="1.05" />
<path
   d="M 292.706,154.415 C 269.201,152.928 253.558,137.632 248.48,123.134 233.46,80.225 195.703,52.5 152.289,52.5 c -26.011,0 -50.57,9.463 -69.151999,26.644 -18.576,17.173999 -29.415,40.418 -30.518,65.449 -0.004,0.102 -0.007,0.202 -0.007,0.303 l -0.112,144.372 c -10e-4,1.858 0.735,3.64 2.048,4.954 1.081,1.082 2.482,1.766 3.979,1.976 v 60.04 c 0,3.866 3.134,7 7,7 H 353.472 c 3.866,0 7,-3.134 7,-7 v -60.153 c 3.075,-0.708 5.382,-3.437 5.425,-6.725 0.007,-0.461 0.603,-47.226 0.603,-64.135 0,-37.705 -31.725,-68.146 -73.794,-70.81 z M 66.612001,145.061 c 0.976,-21.264 10.216,-41.019 26.027998,-55.638 C 108.628,74.641 129.811,66.499 152.288,66.499 c 37.38,0 69.951,24.045999 82.978,61.26 6.604,18.859 26.651,38.735 56.554,40.628 34.594,2.19 60.68,26.626 60.68,56.838 0,12.896 -0.35,43.331 -0.516,57.044 L 66.505001,282.274 Z M 346.473,349.238 H 72.527001 v -52.964 h 12.321 v 30.332 c 0,3.866 3.134,7 6.999998,7 3.866,0 7,-3.134 7,-7 V 296.274 H 105.87 v 30.332 c 0,3.866 3.134,7 7,7 3.866,0 7,-3.134 7,-7 v -30.332 h 7.023 v 30.332 c 0,3.866 3.134,7 7,7 3.866,0 7,-3.134 7,-7 v -30.332 h 19.657 v 30.332 c 0,3.866 3.134,7 7,7 3.866,0 7,-3.134 7,-7 v -30.332 h 7.022 v 30.332 c 0,3.866 3.134,7 7,7 3.866,0 7,-3.134 7,-7 v -30.332 h 22.8 v 30.332 c 0,3.866 3.134,7 7,7 3.866,0 7,-3.134 7,-7 v -30.332 h 7.024 v 30.332 c 0,3.866 3.134,7 7,7 3.866,0 7,-3.134 7,-7 v -30.332 h 7.023 v 30.332 c 0,3.866 3.134,7 7,7 3.866,0 7,-3.134 7,-7 v -30.332 h 21.445 v 30.332 c 0,3.866 3.134,7 7,7 3.866,0 7,-3.134 7,-7 v -30.332 h 7.023 v 30.332 c 0,3.866 3.134,7 7,7 3.866,0 7,-3.134 7,-7 v -30.332 h 15.584 v 52.964 z"
   id="path2"
   style="fill:#ffffff;fill-opacity:1"
   inkscape:connector-curvature="0" />
<g
   id="g4"
   transform="translate(52.500001,50.869)">
</g>
<g
   id="g6"
   transform="translate(52.500001,50.869)">
</g>
<g
   id="g8"
   transform="translate(52.500001,50.869)">
</g>
<g
   id="g10"
   transform="translate(52.500001,50.869)">
</g>
<g
   id="g12"
   transform="translate(52.500001,50.869)">
</g>
<g
   id="g14"
   transform="translate(52.500001,50.869)">
</g>
<g
   id="g16"
   transform="translate(52.500001,50.869)">
</g>
<g
   id="g18"
   transform="translate(52.500001,50.869)">
</g>
<g
   id="g20"
   transform="translate(52.500001,50.869)">
</g>
<g
   id="g22"
   transform="translate(52.500001,50.869)">
</g>
<g
   id="g24"
   transform="translate(52.500001,50.869)">
</g>
<g
   id="g26"
   transform="translate(52.500001,50.869)">
</g>
<g
   id="g28"
   transform="translate(52.500001,50.869)">
</g>
<g
   id="g30"
   transform="translate(52.500001,50.869)">
</g>
<g
   id="g32"
   transform="translate(52.500001,50.869)">
</g>
</svg>